<svg xmlns="http://www.w3.org/2000/svg" xmlns:xlink="http://www.w3.org/1999/xlink" version="1.1" x="0px" y="0px" viewBox="0 0 100 125" enable-background="new 0 0 100 100" xml:space="preserve"><g><path d="M63.9,56.2c0,0.5-0.1,0.8-0.1,1c1,2.8,0.3,5.5,0,8.3c-0.1,0.8-0.3,1.6-0.3,2.4c0,5.5,0,11,0,16.6c0,0.9,0,1.8-0.1,2.7   c-0.3,1.8-1.3,2.5-3.1,2.6c-0.6,0-1.2-0.1-2.1-0.1c-0.2-1-0.5-2.1-0.6-3.1c-0.1-2.2-0.1-4.5-0.1-6.8c-0.1-3-0.2-6-0.3-9   c0-1-0.1-2.1,0.1-3.1c0.6-4,0-7.9-0.2-11.8c-0.1-3,1.6-4.4,4-4.3c5.2,0.3,10.4,0.4,15.5,0.6c2.1,0.1,4.2-0.2,6.3-0.6   c3.7-0.7,7.4-0.8,10.9,1.2c0.5,2.2,0.1,2.5-2,3c-4.9,1.1-9.9,1-14.9,1.4c-2.9,0.2-5.8-0.4-8.8-0.6C66.8,56.4,65.4,56.3,63.9,56.2z"/><path d="M8.4,54.5c0.5-0.3,0.9-0.7,1.4-0.8c1.6-0.2,3.1-0.3,4.7-0.3c3.1,0,6.2-0.4,9.3-1.1c2.5-0.5,5.1-0.7,7.7-1   c1.5-0.2,3-0.3,4.5-0.3c2.5,0,5,0.1,7.5,0.4c1,0.1,2,0.5,2.1,1.8c0,0.2,0.1,0.5,0.2,0.5c2.4,1.5,2,4.2,2.3,6.3c0.4,2.4,0,5-0.1,7.5   c-0.2,5-0.7,9.9-0.3,14.9c0.1,1.7,0.2,3.4,0.2,5.1c0,1.4-0.9,2.2-2.2,2.7c-1.6,0.6-2.3,0.2-2.5-1.5c-0.3-3.9-0.5-7.8-0.7-11.6   C42.3,72.1,42.2,67,42,62c-0.1-1.8-0.3-3.5-0.5-5.5c-3.7-0.2-7.4-0.6-11.2-0.7c-4.8-0.1-9.7,0-14.5-0.1c-2.4-0.1-4.9-0.5-7.3-0.7   C8.5,54.8,8.4,54.6,8.4,54.5z"/><path d="M40.9,39.8c0-0.6,0-1.2,0-1.8c0-3.1-0.1-6.3,0.1-9.4c0.2-5.2,0.5-10.3,0.8-15.5c0-1,0.3-1.7,1.2-2.2   c0.4-0.2,0.7-0.4,1.1-0.6c2.4-1,3.5-0.4,3.7,2.2c0.2,2.2,0,4.3,0,6.5c0,3.7-0.5,7.3-0.9,11c-0.3,2.6-0.2,5.2-0.2,7.7   c0,0.9-0.3,1.6-1,2.2c-0.3,0.3-0.7,0.6-0.7,1c-0.3,1.5-1.5,1.8-2.7,2c-3.2,0.6-6.3,0.7-9.6,0.6c-1.6-0.1-3.1,0.2-4.7,0.2   c-4.4-0.1-8.7-0.3-13.1-0.5C13,43.2,11,43.1,9.1,43c-0.6,0-1.2-0.1-1.8-0.2c0-1,0.4-1.4,1.2-1.6c0.9-0.2,1.9-0.4,2.8-0.5   c3-0.4,5.9-0.7,8.9-1c1.9-0.1,3.8,0,5.7,0c1.9,0,3.8,0.1,5.7,0.1C34.6,39.8,37.6,39.8,40.9,39.8z"/><path d="M62.2,38.5c2.4,0.2,4.7,0.4,7,0.6c2.1,0.1,4.2,0,6.3,0.3c4.8,0.7,9.5-0.1,14.3,0.1c0.8,0,1.6,0.1,2.5,0.1   c0.9,0,1.4,0.6,1.5,1.6c0.1,0.9-0.5,1.2-1.2,1.4c-0.3,0.1-0.5,0.1-0.8,0.1c-4.8,0.3-9.7,0.8-14.5,0.8c-5.8,0-11.6-0.3-17.4-0.5   c-2.4-0.1-2.7-0.5-3-3c-0.1-0.5-0.1-1.1-0.1-1.6c-0.2-5.5-0.4-11-0.5-16.6c-0.1-2.9,0.1-5.7,0.2-8.6c0.1-1.7,0.5-2.2,2.1-2.4   c1.9-0.3,2.7,0.1,3,2c0.3,1.8,0.3,3.6,0.3,5.5c0,0.7,0,1.5,0,2.2c0.7,5.6,0.7,11.2,0.2,16.7C62.2,37.5,62.2,37.9,62.2,38.5z"/><path d="M31.4,91c-0.3-0.9-0.6-1.6-0.8-2.4c-0.4-2.6-0.8-5.3-1.2-7.9c-0.1-0.9,0-1.9-0.1-2.9c-0.1-3.8-0.2-7.6-0.3-11.7   c-2.7-0.3-5.3-0.6-8-0.8c-2.7-0.2-5.5-0.1-8.2-0.3c-2.6-0.2-5.2,0.5-7.9-0.5c0.9-2.3,2.3-3.6,4.6-3.8c4-0.2,8-0.2,12-0.5   c3.2-0.3,6.2,0.2,9.4,0.3c1.1,0,1.7,0.5,2.4,1.4c1,1.5,1.2,3,1.2,4.6c0,1.3,0.3,2.6,0.3,3.9c-0.1,2.1-0.4,4.2-0.6,6.3   C34.2,77.8,34,78.9,34,80c0,2.9,0.1,5.9,0.2,8.8C34.2,90,34,90.2,31.4,91z"/><path d="M71.5,89.7c-0.2-1.3-0.5-2.6-0.7-4c-0.9-6.1-0.5-12.3-0.4-18.4c0.1-2.7,2.4-4.2,4.9-3.6c0.7,0.2,1.5,0.2,2.2,0.2   c4.8,0,9.7,0,14.5-0.1c2,0,2.2,0.1,2.3,1.2c0.1,1.3-0.6,2.1-2.2,2.1c-3.9,0.2-7.9,0.3-11.9,0.4c-1.2,0-2.4,0.1-3.7,0.2   c-0.6,0-1,0.4-1,1c0,3.1-0.1,6.1-0.1,9.2c0,1.9,0.2,3.8,0.5,5.7C76.7,87.4,75.5,89,71.5,89.7z"/><path d="M28.5,29.4c0-2.2,0-4.3,0-6.4c-0.1-2.5-0.2-5-0.3-7.6c0-1,0.1-2,0.2-3.1c0.2-1.5,0.9-2,2.8-2.1c0.5,1.3,0.9,2.6,1,4   c0.2,2.8,0.8,5.7,1.1,8.5c0.1,1,0.1,2,0.1,3c0,0.5-0.2,1-0.1,1.4c0.4,1.4,0.1,2.6-0.3,4c-0.5,1.6-0.7,2-2.4,2.3   c-2.4,0.3-4.9,0.7-7.3,0.9c-5.4,0.4-10.9,0.8-16.3,1.1c-0.3-1.7,0.8-3.1,2.4-3.4c2.3-0.4,4.7-0.6,7.1-1   C20.5,30.6,24.5,30,28.5,29.4z"/><path d="M68.7,34c0-0.8,0-1.2,0-1.7c-0.1-2.2-0.1-4.4-0.3-6.5c-0.5-4.3-0.5-8.7-0.2-13.1c0.5-0.2,0.9-0.4,1.4-0.5   c2.6-0.5,3,0.1,2.7,2.3c-0.1,0.7,0,1.4,0.1,2c0,0.6,0.2,1.3,0.1,1.8c-0.7,2.2-0.2,4.5-0.1,6.7c0.1,1.5,0,3.1,0,4.9   c2.2,0.1,4.4,0.4,6.6,0.1c3.6-0.4,7.1,0.1,10.6,0c0.3,0,0.5,0.1,0.8,0.1c1.4,0.4,2,0.9,2,1.9c0,1.4-1.2,1.4-2.1,1.4   c-5.9,0.4-11.8,1.7-17.7,1C71.3,34.4,70.1,34.2,68.7,34z"/><path d="M19,90.4c-0.1-1.3-0.2-2.6-0.4-3.9c-0.4-3.4-1.3-6.8-1.2-10.3c0-0.3-0.1-0.5-0.2-0.9C15,75,13,74.8,10.9,75.1   c-1.3,0.2-2.7,0.3-4.1,0.4c-0.4,0-1-0.3-1.3-0.7C5.1,74.1,5.3,73.4,6,73c0.9-0.5,1.8-0.9,2.8-1.2c0.6-0.2,1.3-0.3,2-0.4   c1.7-0.3,3.5-0.6,5.2-0.8c1.9-0.2,3.6,0.4,5.4,1c0,0.4,0,0.8-0.1,1.1c-0.4,2.3-0.4,4.6,0,6.9c0.4,2.7,0.6,5.4,1,8.1   C22.6,89.9,21.1,91,19,90.4z"/><path d="M21.7,17.4c0,1.9,0,3.4,0,4.9c0,2.1-0.6,2.6-2.3,2.8c-3.9,0.5-7.7,1.9-11.8,1.3c-0.3,0-0.8,0.1-1-0.1   C6.3,26,5.8,25.5,5.6,25c-0.2-0.7,0.2-1.2,0.9-1.4c0.7-0.2,1.5-0.4,2.2-0.5c2-0.2,4.1-0.3,6.1-0.5c2.2-0.1,2.4-0.3,2.5-2.5   c0.1-3.1,0.1-6.3,0.2-9.4c0-1.2,0.4-1.6,1.5-1.7c0.7-0.1,1.2,0.2,1.5,0.8c0.4,0.9,0.8,1.8,0.9,2.7C21.7,14.3,21.7,16.1,21.7,17.4z"/><path d="M83.1,90.5c-0.4-1.5-0.8-2.9-0.6-4.5c0.2-1.6-0.4-3.4-0.4-5c-0.1-1.6,0.2-3.1,0.2-4.7c0.1-2,1.6-2.9,3.1-3.2   c3-0.6,6.1-0.7,9.1-0.5c1.1,1.9,0.4,3.7-1.4,3.9c-2.3,0.2-4.7,0.2-7.3,0.3c-0.1,0.4-0.3,0.9-0.3,1.4c0,1.4,0.2,2.7,0.3,4.1   c0.1,0.9,0.1,1.9,0.1,2.8c0,1-0.2,2-0.3,3C85.3,89.7,84.7,90.4,83.1,90.5z"/><path d="M92.9,20.3c0.3,1.8,0,2.5-1.3,2.6c-3.8,0.4-7.6,1.1-11.4,0.4c-1.8-0.3-2.2-0.7-2.6-2.4c-0.7-3.3-0.3-6.6,0.5-9.9   c1.5,0,2.2,0.8,2.5,1.9c0.2,0.9,0.2,1.9,0.2,2.8c0,1.3,0,2.6,0,4c2.3,0,4.3-0.1,6.3,0C89,19.9,91,20.1,92.9,20.3z"/></g></svg>