<svg xmlns="http://www.w3.org/2000/svg" xmlns:xlink="http://www.w3.org/1999/xlink" version="1.1" x="0px" y="0px" viewBox="0 0 100 125" enable-background="new 0 0 100 100" xml:space="preserve"><g><path d="M93.9,94.1c-1.7,1.2-2.6,1.2-3.8,0.1c-4-3.8-7.8-7.8-11.8-11.6c-2.8-2.6-5.8-5-8.6-7.7c-2.4-2.3-4.7-4.6-7.1-7   c-0.5-0.5-0.9-1.1-1.4-1.4c-3.2-1.9-5-5.1-7.1-7.9c-0.7-0.9-1.5-1.7-2.2-2.5c-2.9-3.3-5.8-6.6-8.9-9.8c-1.9-1.9-4.2-3.5-6.1-5.4   c-3.5-3.4-7-6.9-10.4-10.6c-2-2.1-3.8-4.5-5.6-6.8c-0.2-0.3-0.5-0.5-0.7-0.9c-2.2-4.4-6-7.2-9.5-10.3c-0.9-0.8-2-1.5-2.9-2.4   C6.4,8.8,6,7.1,7,5.8c0.5-0.7,1.2-1.1,2.1-0.6c0.8,0.4,1.7,0.7,2.3,1.3c4,4.2,8.1,8.4,11.8,12.8c5.8,7,12.2,13.6,18.6,20   c4.7,4.7,9.4,9.6,14,14.4c2,2.1,3.8,4.3,5.7,6.4c3.1,3.3,6.3,6.7,9.5,9.9c3,3,6.2,5.9,9.2,8.9c2.3,2.3,4.3,4.8,6.8,7   c2.1,1.8,4,3.7,5.5,5.9C92.9,92.6,93.4,93.3,93.9,94.1z"/><path d="M78.5,94.3c-0.6-0.1-1.3,0.1-1.8-0.2c-1.5-0.7-3-1.6-4.4-2.5c-4.3-2.8-7.8-6.6-12.2-9.4c-3.1-2-5.9-4.7-8.7-7.1   c-1-0.9-1.7-2.1-2.5-3.1c-1.5-1.9-3.4-3.6-4.6-5.6c-1.6-2.6-3.6-4.8-5.5-7.1c-2-2.4-3.9-4.9-6.3-6.7c-3.8-2.9-6.9-6.3-9.6-10.2   c-1.8-2.6-4.3-4.9-6.5-7.2c-2.5-2.7-5.2-5.2-7.6-8c-0.6-0.7-0.7-1.9-1-3.1c0.4-0.1,0.8-0.3,1.1-0.2c0.7,0.2,1.4,0.5,2,1   c3,2.4,6.2,4.6,8.9,7.2c4.5,4.4,8.7,9.2,13.1,13.7c2.6,2.7,5.2,5.3,7.6,8.2c4.6,5.6,9.4,10.9,14.2,16.3c1.9,2.1,3.7,4.2,5.7,6.1   c1.8,1.7,3.8,3.3,5.6,4.9c1.9,1.6,3.8,3.3,5.7,4.9c2.6,2.3,4.9,4.8,6.9,7.6C78.6,94,78.5,94.2,78.5,94.3z"/><path d="M93.5,77.7c-1.2,0.4-1.8-0.2-2.4-1c-2.6-3.3-5.2-6.6-8-9.7c-2.7-3.1-5.7-6-8.5-8.9c-2.7-2.8-5.8-5.4-7.9-8.6   c-2.6-3.7-5.9-6.6-8.9-9.9c-2.2-2.4-4.1-5-6.2-7.4c-1.2-1.4-2.7-2.7-3.9-4.2c-1.4-1.6-2.7-3.3-4-5c-3.7-4.7-7.3-9.4-11-14.1   c-0.6-0.7-0.8-1.4-0.1-2.1c0.9-0.9,1.9-1,2.7-0.3c1.3,1.2,2.6,2.4,3.7,3.8c4.2,4.9,8.5,9.6,12.1,14.9c0.3,0.5,0.7,1,1.1,1.4   c3.1,3.6,6.2,7.1,9.3,10.7c0.3,0.4,0.7,0.8,1,1.1c4.8,4.7,9.8,9.3,14.5,14.2c5.5,5.9,10.6,12,14,19.4c0.5,1,1.2,1.9,1.8,2.8   C93.4,75.6,93.8,76.5,93.5,77.7z"/><path d="M93.9,56.1c0.1,1.2-0.8,1.8-1.7,1.1c-1.1-0.8-2.1-1.9-2.9-3c-2.4-3-4.8-6.1-7.1-9.2c-1.4-1.9-2.7-4-4.1-6   c-0.8-1.1-1.6-2.1-2.4-3.2c-0.2-0.3-0.6-0.5-0.7-0.9c-0.6-2.6-2.5-4.3-4-6.3c-1.9-2.6-3.8-5.2-5.8-7.8c-2-2.6-4.1-5.2-6.1-7.8   c-1.1-1.5-2.2-2.9-2.5-4.8c-0.1-0.7-0.2-1.3,0.5-1.7c0.8-0.5,1.4,0,1.9,0.5c2.4,2.8,4.8,5.6,7.2,8.4c2.2,2.7,4.5,5.3,6.6,8   c2.1,2.6,4.2,5.3,6.2,8c2.9,3.8,5.7,7.6,8.6,11.5c2.8,3.8,4.3,8.4,6.2,12.7C93.8,55.8,93.9,56,93.9,56.1z"/><path d="M58.6,94.8c-1.6-0.7-3.3-1.2-4.7-2.2c-2.1-1.5-3.9-3.3-5.9-5c-1-0.8-2.2-1.5-3.1-2.4c-2.4-2.3-4.7-4.8-7.1-7.2   c-3.7-3.5-7.4-6.9-11.1-10.4c-4-3.9-8-7.8-12-11.7c-1.5-1.5-3.1-2.9-4.6-4.5c-1.2-1.2-2.3-2.5-3.4-3.7c-0.7-0.7-0.8-1.6-0.5-2.5   c0.4-1,1.2-1.3,2-0.6c0.8,0.6,1.5,1.4,2.3,2.1c0.9,0.9,1.7,2.1,2.8,2.8c4.5,2.8,7.7,7,11.6,10.4c3.7,3.3,7,7.2,10.6,10.6   c4.3,4.2,8.3,8.7,13.1,12.5c3.6,2.8,6.6,6.3,9.8,9.6c0.4,0.4,0.6,1.1,0.8,1.6C58.9,94.5,58.8,94.6,58.6,94.8z"/><path d="M6.6,59.4c2.6,1.9,5.3,3.4,7.5,5.3c2.6,2.3,4.8,5.2,7.4,7.5c3,2.6,6.3,4.8,9.5,7.2c0.6,0.4,1.2,0.9,1.7,1.4   c2,2.2,3.9,4.4,5.9,6.5c1.1,1.2,2.4,2.4,3.6,3.6c0.8,0.8,1.5,1.7,2.3,2.6c-1.4,1.5-1.7,1.4-3.1,0.7c-3.4-1.7-5.6-4.6-8.4-7   c-2.7-2.3-5.6-4.5-8.3-6.9c-2.6-2.3-5.1-4.8-7.7-7.2c-3.2-3-6.3-6-9.6-8.8c-1-0.9-1.5-2-1.5-3.2C5.8,60.5,6.2,60.1,6.6,59.4z"/><path d="M71.8,5.3c0.3,0.4,0.5,0.7,0.8,0.9c3.3,4,6.6,8.1,9.9,12.1c0.3,0.3,0.6,0.7,0.9,1c3.3,3,5.8,6.6,8.2,10.3   c0.9,1.3,1.4,2.8,2.2,4.5c-1.8,0.2-3-0.6-3.8-1.6c-1.8-2-3.4-4.2-5.1-6.3c-1.1-1.3-2.3-2.5-3.4-3.8c-2.4-2.7-4.8-5.4-7-8.2   c-0.8-1.1-1.3-2.4-1.9-3.7c-0.4-0.8-0.8-1.5-1.2-2.3C71,7.3,70.7,6.3,71.8,5.3z"/><path d="M6.6,75.6c8.4,4.6,14.6,11,21.5,16.7c0.5,0.4,0.7,1,1.2,1.7c-1.2,0.6-2.1,0.4-3.2-0.1c-2-1.1-3.7-2.5-5.5-3.9   c-4.3-3.4-8.8-6.7-13.3-9.9c-0.9-0.7-0.8-1.5-1-2.3C6,77.1,6.4,76.4,6.6,75.6z"/><path d="M87,6.9c0.5,0.3,0.9,0.5,1.2,0.8c1.9,2,3.8,3.9,5.6,5.9c0.6,0.6,0.5,1.4-0.1,2c-0.6,0.6-1.3,0.6-2-0.1   C89.8,13.7,87.8,12,86,10c-0.4-0.4-0.2-1.4-0.1-2C86.1,7.6,86.6,7.3,87,6.9z"/><path d="M16.8,94.4c-0.9,0.9-1.7,0.4-2.4-0.1c-1.1-0.8-2.1-1.6-3.2-2.4c-1.2-0.9-2.4-1.7-3.6-2.5c-0.4-0.3-0.8-0.5-0.9-0.9   c-0.1-0.4-0.1-1.1,0.1-1.4C7,86.8,7.5,86.7,8,86.6c0.2,0,0.6,0.2,0.8,0.4c2.4,2,4.8,4.1,7.2,6.1C16.3,93.4,16.5,93.9,16.8,94.4z"/></g></svg>