<svg xmlns="http://www.w3.org/2000/svg" xmlns:xlink="http://www.w3.org/1999/xlink" version="1.1" x="0px" y="0px" viewBox="-912.34 655.461 91 113.75" enable-background="new -912.34 655.461 91 91" xml:space="preserve"><g><path d="M-827.496,665.271c-24.612,1.669-49.304,2.183-73.969,2.275c-0.013-0.409-0.031-0.817-0.041-1.226   c-0.031-1.235-1.954-1.24-1.924,0c0.01,0.411,0.012,0.823,0.021,1.234c-0.729,0.002-1.459,0.007-2.188,0.009   c-3.617,0.006-3.623,5.629,0,5.622c0.744-0.001,1.487-0.015,2.231-0.019c-0.024,6.965-0.266,13.938-0.226,20.899   c0.033,5.814,0.01,11.634,0.044,17.453c-0.875,0.133-1.729,0.336-2.537,0.68c-0.84,0.357-0.451,1.508,0.229,1.758   c0.734,0.268,1.519,0.42,2.325,0.508c0.024,2.451,0.062,4.9,0.125,7.348c0.033,1.271,1.035,2.289,2.317,2.316   c8.268,0.176,16.536,0.352,24.804,0.527c-0.502,3.768-1.731,7.43-2.064,11.18c-0.398,0.051-0.797,0.1-1.195,0.15   c-4.104,0.521-8.172,1.662-12.27,2.086c-0.875,0.09-0.884,1.471,0,1.381c3.841-0.396,7.816-0.057,11.686-0.184   c1.125-0.037,2.251-0.074,3.377-0.109c0.27,0.039,0.549,0.027,0.822-0.027c2.698-0.086,5.396-0.176,8.092-0.297   c2.974-0.133,5.948-0.24,8.923-0.336c0.875,0.799,2.342,0.787,3.033-0.098c4.026-0.115,8.054-0.199,12.082-0.26   c3.045-0.045,3.05-4.818,0-4.734c-3.953,0.111-7.903,0.271-11.852,0.482c-0.171-2.941-0.44-5.904-0.751-8.811   c2.271,0.049,4.542,0.096,6.814,0.145c4.701,0.1,9.974,0.859,14.608-0.16c3.908-0.859,6.31-3.41,6.897-7.369   c0.757-5.088,0.619-10.43,0.877-15.568c0.582-11.558,1.248-23.109,1.902-34.663C-825.24,666.335-826.361,665.193-827.496,665.271z    M-899.964,694.065c-0.307-6.973-0.896-13.943-1.266-20.917c23.85-0.188,47.646-1.506,71.423-3.321   c-0.484,9.572-1.998,37.422-2.25,41.777c-12.269-0.855-24.634-1.002-36.921-1.121c-6.3-0.059-12.606,0.109-18.903,0.283   c-3.35,0.092-6.695,0.209-10.041,0.414c-0.406,0.023-0.818,0.039-1.231,0.053C-899.407,705.508-899.712,699.785-899.964,694.065z    M-859.709,734.131c-2.71,0.168-5.42,0.35-8.128,0.566c-2.094,0.166-4.186,0.383-6.277,0.623c-0.079-1.803-0.424-3.629-0.637-5.396   c-0.218-1.809-0.274-3.494-0.237-5.242c2.877,0.063,5.755,0.123,8.632,0.186c2.761,0.059,5.522,0.117,8.282,0.176   C-859.072,727.869-859.654,731.051-859.709,734.131z M-834.155,720.092c-1.479,0.988-3.777,0.863-5.455,0.85   c-19.743-0.184-39.496-0.906-59.235-1.391c-0.049-1.67-0.098-3.34-0.164-5.008c0.57-0.012,1.133-0.021,1.677-0.008   c3.15,0.074,6.299,0.092,9.45,0.129c6.5,0.076,12.995,0.275,19.493,0.383c12.034,0.197,24.038,0.867,36.061,1.299   C-832.471,717.813-832.85,719.221-834.155,720.092z"/><path d="M-865.663,717.311c-0.036-0.01-0.074-0.021-0.111-0.033c-0.489-0.145-1.241,0.084-1.458,0.594   c-0.033,0.076-0.061,0.15-0.11,0.217c-0.164,0.221-0.164,0.65,0,0.871c0.049,0.066,0.077,0.141,0.11,0.217   c0.217,0.508,0.962,0.74,1.458,0.594c0.037-0.012,0.075-0.023,0.111-0.033C-864.467,719.383-864.466,717.664-865.663,717.311z"/></g></svg>