<svg xmlns="http://www.w3.org/2000/svg" xmlns:xlink="http://www.w3.org/1999/xlink" version="1.1" x="0px" y="0px" viewBox="-912.34 655.461 91 113.75" enable-background="new -912.34 655.461 91 91" xml:space="preserve"><g><path d="M-867.309,724.496c-0.785,0-1.61,0.342-2.165,0.898c-0.53,0.529-0.931,1.4-0.896,2.164   c0.036,0.791,0.296,1.611,0.896,2.164c0.599,0.549,1.335,0.896,2.165,0.896c0.784,0,1.609-0.342,2.164-0.896   c0.532-0.531,0.931-1.402,0.897-2.164c-0.036-0.793-0.296-1.613-0.897-2.164C-865.744,724.844-866.48,724.496-867.309,724.496z"/><path d="M-892.955,720.666c0.271-0.012,0.543-0.014,0.814-0.02c-0.134,4.268-0.271,8.533-0.424,12.799   c-0.042,1.191,1.002,2.031,2.104,2.105c10.88,0.723,21.757,1.537,32.643,2.154c3.098,0.176,6.331,0.596,9.265-0.678   c3.162-1.371,4.868-4.389,5.483-7.672c0.902-4.814,0.436-10.027,0.532-14.908c0.104-5.307,0.208-10.615,0.313-15.922   c0.217-11.009,0.471-22.016,0.759-33.024c0.027-1.041-0.905-1.931-1.928-1.928c-15.366,0.037-30.731,0.279-46.091,0.727   c-2.644,0.077-2.898,3.814-0.778,4.46c-0.853,16.652-1.302,33.308-1.818,49.968c-0.292,0.018-0.584,0.041-0.875,0.053   C-894.164,718.832-894.169,720.717-892.955,720.666z M-850.658,733.613c-3.259,0.969-7.354-0.088-10.658-0.313   c-8.99-0.611-17.98-1.209-26.971-1.814c0.126-3.592,0.237-7.184,0.328-10.771c2.733,0.129,5.483,0.365,8.179,0.41   c5.221,0.086,10.442,0.086,15.664,0.113c4.422,0.021,8.844-0.037,13.267-0.078c1.399-0.014,4.461-0.051,4.653-0.063   c-0.024,0.732-0.043,1.465-0.069,2.195C-846.392,726.949-846.361,732.336-850.658,733.613z M-888.591,668.827   c14.411-0.634,28.828-1.084,43.25-1.357c-0.167,16.172-0.249,32.367-0.696,48.538c-0.2-0.01-3.413,0.059-4.812,0.1   c-4.424,0.133-8.847,0.258-13.267,0.477c-5.223,0.258-10.447,0.506-15.664,0.875c-2.699,0.191-5.415,0.578-8.124,0.891   C-887.528,701.834-887.604,685.354-888.591,668.827z"/></g></svg>